<svg width="1920" height="650" viewBox="0 0 1920 650" fill="none" xmlns="http://www.w3.org/2000/svg">
<path d="M1809.53 33.9317C1802.22 35.6358 1794.14 36.4879 1785.31 36.4879C1762.53 36.4879 1744.66 30.8128 1731.71 19.4626C1730.05 17.9754 1728.49 16.4107 1727.05 14.7684V128.67L1809.53 33.9317Z" fill="#F0F0F2"/>
<path d="M1643.14 0H1640.17V76.4334H1477.41V95.3932H1587.73V169.685H1477.41V189.419H1640.95V264.287H1643.14V0Z" fill="#F0F0F2"/>
<path d="M1393.51 0L1334.24 9.8833e-08C1344.59 3.78614 1353.64 8.75645 1361.42 14.9109C1381.87 30.9043 1392.1 54.6363 1392.1 86.1072H1305.09C1303.54 80.1741 1299.65 76.1758 1293.44 74.1122C1287.48 71.7906 1276.61 70.6298 1260.81 70.6298H1241.39C1219.64 70.6298 1205.52 73.9832 1199.05 80.6901C1192.57 87.139 1189.34 101.069 1189.34 122.479V143.374C1189.34 165.042 1192.57 179.101 1199.05 185.55C1205.52 191.999 1219.64 195.223 1241.39 195.223H1260.81C1276.61 195.223 1287.48 194.192 1293.44 192.128C1299.65 189.806 1303.54 185.679 1305.09 179.746H1392.1C1392.1 211.217 1381.87 234.949 1361.42 250.942C1354.67 256.282 1346.96 260.73 1338.28 264.287H1378.9V412.611L1504.28 268.354H1393.51V0Z" fill="#F0F0F2"/>
<path d="M1168.14 1.40617e-08L1136.16 0L1056.48 132.152L1129.38 256.849H1147.22C1142.1 253.837 1137.62 250.45 1133.79 246.686C1115.4 228.113 1105.95 194.321 1105.43 145.309V120.545C1105.95 71.5325 1115.4 37.8692 1133.79 19.5542C1142.16 11.2168 1153.61 4.69871 1168.14 1.40617e-08Z" fill="#F0F0F2"/>
<path d="M1040.63 0H934.897V92.6846H985.783L1040.63 0Z" fill="#F0F0F2"/>
<path d="M850.993 0H848.019V76.4334H685.262V95.3932H795.58V169.685H685.262V189.419H848.796V264.287H850.993V0Z" fill="#F0F0F2"/>
<path d="M601.358 0H592.087V264.287H601.358V0Z" fill="#F0F0F2"/>
<path d="M366.437 0H213.047L294.928 201.746V188.645C314.091 188.645 326.651 186.194 332.607 181.293C338.822 176.392 342.966 166.461 345.037 151.499L366.437 0Z" fill="#F0F0F2"/>
<path d="M106.914 0H0V263.426L106.914 0Z" fill="#F0F0F2"/>
<path d="M0 570.562V650H1920V570.562H1832.29V461.178H1705.13V570.562H1610.41V268.354H1604.28V570.562H1509.57V405.611L1366.18 570.562H1284.19V514.517C1278.21 529.359 1268.42 541.769 1254.81 551.748C1230.84 569.249 1196.05 578 1150.45 578H1111.43C1063.19 578 1026.95 569.395 1002.68 552.186C978.712 534.684 966.727 507.411 966.727 470.366H1065.82C1067.58 477.075 1071.82 481.743 1078.54 484.368C1085.56 486.701 1097.98 487.868 1115.81 487.868H1166.68C1181.29 487.868 1188.6 482.909 1188.6 472.992C1188.6 463.074 1181.29 458.115 1166.68 458.115H1084.24V376.733H1162.29C1176.91 376.733 1184.22 371.775 1184.22 361.857C1184.22 351.94 1176.91 346.981 1162.29 346.981H1115.81C1097.98 346.981 1085.56 348.294 1078.54 350.919C1071.82 353.252 1067.58 357.774 1065.82 364.482H981.778C981.822 366.068 981.844 367.673 981.844 369.295C981.844 403.715 971.905 429.821 952.027 447.614C932.149 465.407 902.917 474.304 864.33 474.304H754.709V570.562H659.996V298.852L529.598 524.183C519.074 542.268 507.528 554.519 494.958 560.936C482.388 567.353 463.387 570.562 437.955 570.562H374.813V481.305H428.308C435.324 481.305 441.462 480.138 446.724 477.805L334.879 284.676V570.562H240.166V398.61L166.062 483.055L92.8353 399.923V570.562H0Z" fill="#F0F0F2"/>
<path d="M97.2201 264.287H87.7604L103.656 223.469H215.528L233.008 268.354H233.098L166.939 343.918L97.2201 264.287Z" fill="#F0F0F2"/>
<path d="M430.062 264.287H347.528C364.181 260.968 377.853 255.616 388.543 248.233C408.224 234.819 420.266 212.764 424.668 182.067L439.429 76.4334H508.183V268.354H571.588L501.973 391.61L430.062 264.287Z" fill="#F0F0F2"/>
<path d="M952.027 290.977C939.909 280.129 924.314 272.588 905.242 268.354H934.897V171.62H983.841L1038.43 266.029C1024.51 270.259 1012.6 275.949 1002.68 283.101C989.146 292.82 979.432 305.701 973.539 321.746C968.585 309.635 961.414 299.379 952.027 290.977Z" fill="#F0F0F2"/>
<path d="M1284.19 332.696C1278.55 306.821 1263.85 287.567 1240.1 274.932H1274.79C1277.99 274.932 1281.12 274.875 1284.19 274.759V332.696Z" fill="#F0F0F2"/>
<path d="M1705.13 371.92V268.354H1715.78L1842.8 122.479V264.287H1832.29V371.92H1705.13Z" fill="#F0F0F2"/>
<path d="M159.592 78.3681L185.23 144.534H133.955L159.592 78.3681Z" fill="#F0F0F2"/>
<path d="M1268.4 414.799C1276.04 407.181 1281.3 397.083 1284.19 384.503V436.059C1280.43 427.469 1275.17 420.383 1268.4 414.799Z" fill="#F0F0F2"/>
<path d="M887.132 369.295C887.132 379.796 880.116 385.046 866.084 385.046H754.709V353.544H866.084C880.116 353.544 887.132 358.794 887.132 369.295Z" fill="#F0F0F2"/>
</svg>
