<svg width="24" height="24" viewBox="0 0 24 24" fill="none" xmlns="http://www.w3.org/2000/svg">
<path fill-rule="evenodd" clip-rule="evenodd" d="M23 12C23 18.0751 18.0751 23 12 23C5.92487 23 1 18.0751 1 12C1 5.92487 5.92487 1 12 1C18.0751 1 23 5.92487 23 12ZM24 12C24 18.6274 18.6274 24 12 24C5.37258 24 0 18.6274 0 12C0 5.37258 5.37258 0 12 0C18.6274 0 24 5.37258 24 12ZM13.6618 17V9.67113H10.3382V17H13.6618ZM10.5441 8.65286C10.9167 8.93869 11.402 9.08161 12 9.08161C12.6078 9.08161 13.0931 8.93423 13.4559 8.63946C13.8186 8.33577 14 7.95168 14 7.48721C14 7.04953 13.8186 6.69225 13.4559 6.41535C13.0931 6.13845 12.6078 6 12 6C11.402 6 10.9167 6.14738 10.5441 6.44214C10.1814 6.72797 10 7.09419 10 7.5408C10 7.98741 10.1814 8.3581 10.5441 8.65286Z" fill="#302F35"/>
</svg>
