<svg width="148" height="36" viewBox="0 0 148 36" fill="none" xmlns="http://www.w3.org/2000/svg">
<path d="M147.82 23.482H135.683V21.4727H147.82V23.482Z" fill="white"/>
<path d="M147.82 11.4707V13.4621H146.739C147.577 14.1739 148 15.12 148 16.3094C148 17.1835 147.757 17.9224 147.279 18.5261C146.793 19.1298 146.126 19.4362 145.261 19.4362C144.315 19.4362 143.603 19.1118 143.116 18.454C142.63 17.7962 142.387 16.9402 142.387 15.8769C142.387 15.0209 142.513 14.21 142.756 13.4531H142.594C141.981 13.4531 141.522 13.6423 141.197 14.0117C140.873 14.3812 140.711 14.9218 140.711 15.6156C140.711 16.4176 140.891 17.2466 141.26 18.1296L139.648 18.6793C139.161 17.589 138.918 16.4806 138.918 15.3363C138.918 14.0658 139.242 13.1016 139.882 12.4529C140.522 11.8041 141.441 11.4797 142.621 11.4797H147.829L147.82 11.4707ZM144.648 13.417H144.153C143.918 14.0117 143.801 14.6875 143.801 15.4264C143.801 16.0571 143.927 16.5527 144.171 16.9042C144.414 17.2556 144.756 17.4358 145.198 17.4358C145.594 17.4358 145.91 17.2736 146.144 16.9492C146.378 16.6248 146.495 16.2193 146.495 15.7328C146.495 15.057 146.324 14.4983 145.982 14.0658C145.639 13.6243 145.198 13.408 144.648 13.408V13.417Z" fill="white"/>
<path d="M148 4.09086C148 5.29829 147.486 6.28946 146.45 7.06438H147.811V9.07377H135.674V7.06438H140.495C139.395 6.28946 138.846 5.29829 138.846 4.09086C138.846 2.98254 139.26 2.02741 140.089 1.21644C140.918 0.405481 142.035 0 143.441 0C144.846 0 145.937 0.405481 146.757 1.21644C147.586 2.02741 148 2.98254 148 4.09086ZM146.252 4.55941C146.252 3.84757 145.991 3.25286 145.468 2.77529C144.946 2.28872 144.261 2.05444 143.405 2.05444C142.549 2.05444 141.9 2.29773 141.378 2.7843C140.855 3.27088 140.594 3.86559 140.594 4.55941C140.594 5.25323 140.864 5.85695 141.396 6.36155C141.927 6.86615 142.612 7.11845 143.441 7.11845C144.27 7.11845 144.937 6.86615 145.459 6.36155C145.982 5.85695 146.252 5.25323 146.252 4.55941Z" fill="white"/>
<path d="M0 35.2047V29.6541H0.973091V30.3659C1.35152 29.8343 1.82905 29.564 2.41471 29.564C2.95531 29.564 3.41483 29.7622 3.81127 30.1677C4.20772 30.5642 4.39693 31.1138 4.39693 31.7896C4.39693 32.4654 4.19871 32.997 3.81127 33.4025C3.42384 33.799 2.95531 34.0062 2.41471 34.0062C1.82905 34.0062 1.35152 33.7539 0.973091 33.2583V35.2137H0V35.2047ZM2.18946 33.1592C2.53184 33.1592 2.82016 33.0331 3.05443 32.7808C3.28869 32.5285 3.40582 32.1951 3.40582 31.7806C3.40582 31.3661 3.28869 31.0507 3.05443 30.7984C2.82016 30.5461 2.53184 30.42 2.18946 30.42C1.84707 30.42 1.55875 30.5461 1.31548 30.8074C1.0722 31.0687 0.946061 31.3931 0.946061 31.7986C0.946061 32.2041 1.0722 32.5195 1.31548 32.7808C1.55875 33.0331 1.85608 33.1682 2.18946 33.1682V33.1592Z" fill="white"/>
<path d="M9.78498 33.9072H8.82089V33.3846C8.47851 33.7901 8.01899 33.9973 7.44235 33.9973C7.01887 33.9973 6.65847 33.8802 6.37015 33.6459C6.08182 33.4116 5.92865 33.0872 5.92865 32.6637C5.92865 32.2042 6.09083 31.8618 6.40619 31.6275C6.72154 31.3932 7.136 31.2761 7.65859 31.2761C8.07306 31.2761 8.4695 31.3392 8.83891 31.4563V31.3752C8.83891 31.0779 8.74881 30.8526 8.56861 30.6994C8.38841 30.5462 8.12712 30.4651 7.79374 30.4651C7.40631 30.4651 7.00085 30.5552 6.57738 30.7354L6.31608 29.9515C6.83867 29.7172 7.37928 29.6001 7.9379 29.6001C8.5596 29.6001 9.01912 29.7533 9.33447 30.0687C9.64982 30.384 9.803 30.8256 9.803 31.4022V33.9252L9.78498 33.9072ZM8.83891 32.3664V32.1231C8.55059 32.006 8.22623 31.9519 7.86582 31.9519C7.55948 31.9519 7.31621 32.015 7.14501 32.1321C6.97382 32.2492 6.88372 32.4204 6.88372 32.6277C6.88372 32.8169 6.96481 32.9701 7.11798 33.0872C7.27116 33.2044 7.46938 33.2584 7.70364 33.2584C8.028 33.2584 8.29831 33.1773 8.51455 33.0061C8.73079 32.844 8.8299 32.6277 8.8299 32.3574L8.83891 32.3664Z" fill="white"/>
<path d="M13.1998 34.0062C12.47 34.0062 11.8483 33.79 11.3347 33.3575L11.7942 32.7087C12.1907 33.0511 12.6412 33.2133 13.1367 33.2133C13.362 33.2133 13.5512 33.1592 13.7044 33.0511C13.8575 32.943 13.9386 32.7988 13.9386 32.6276C13.9386 32.4654 13.8666 32.3393 13.7134 32.2401C13.5602 32.141 13.353 32.096 13.0737 32.096H12.5511V31.3931H13.0737C13.2989 31.3931 13.4791 31.3391 13.6143 31.24C13.7494 31.1408 13.8215 31.0057 13.8215 30.8435C13.8215 30.6993 13.7584 30.5822 13.6233 30.4921C13.4881 30.402 13.326 30.3569 13.1187 30.3569C12.6412 30.3569 12.2447 30.5011 11.9114 30.7894L11.4789 30.1767C11.9474 29.7712 12.5241 29.564 13.2088 29.564C13.6773 29.564 14.0558 29.6721 14.3531 29.8883C14.6504 30.1046 14.7946 30.3749 14.7946 30.7083C14.7946 31.1589 14.5693 31.4832 14.1278 31.6725C14.6414 31.8527 14.9027 32.1951 14.9027 32.7087C14.9027 33.0781 14.7405 33.3845 14.4252 33.6368C14.1098 33.8891 13.6954 34.0152 13.1908 34.0152L13.1998 34.0062Z" fill="white"/>
<path d="M16.7318 35.2047V29.6541H17.7048V30.3659C18.0833 29.8343 18.5608 29.564 19.1465 29.564C19.6871 29.564 20.1466 29.7622 20.543 30.1677C20.9395 30.5642 21.1287 31.1138 21.1287 31.7896C21.1287 32.4654 20.9305 32.997 20.543 33.4025C20.1556 33.799 19.6871 34.0062 19.1465 34.0062C18.5608 34.0062 18.0833 33.7539 17.7048 33.2583V35.2137H16.7318V35.2047ZM18.9212 33.1592C19.2636 33.1592 19.5519 33.0331 19.7862 32.7808C20.0204 32.5285 20.1376 32.1951 20.1376 31.7806C20.1376 31.3661 20.0204 31.0507 19.7862 30.7984C19.5519 30.5461 19.2636 30.42 18.9212 30.42C18.5788 30.42 18.2905 30.5461 18.0472 30.8074C17.804 31.0687 17.6778 31.3931 17.6778 31.7986C17.6778 32.2041 17.804 32.5195 18.0472 32.7808C18.2905 33.0331 18.5878 33.1682 18.9212 33.1682V33.1592Z" fill="white"/>
<path d="M26.5167 33.9072H25.5526V33.3846C25.2103 33.7901 24.7507 33.9973 24.1741 33.9973C23.7506 33.9973 23.3902 33.8802 23.1019 33.6459C22.8136 33.4116 22.6604 33.0872 22.6604 32.6637C22.6604 32.2042 22.8226 31.8618 23.1379 31.6275C23.4533 31.3932 23.8678 31.2761 24.3903 31.2761C24.8048 31.2761 25.2012 31.3392 25.5707 31.4563V31.3752C25.5707 31.0779 25.4806 30.8526 25.3004 30.6994C25.1202 30.5462 24.8589 30.4651 24.5255 30.4651C24.1381 30.4651 23.7326 30.5552 23.3091 30.7354L23.0478 29.9515C23.5704 29.7172 24.111 29.6001 24.6697 29.6001C25.2914 29.6001 25.7509 29.7533 26.0662 30.0687C26.3816 30.384 26.5347 30.8256 26.5347 31.4022V33.9252L26.5167 33.9072ZM25.5707 32.3664V32.1231C25.2823 32.006 24.958 31.9519 24.5976 31.9519C24.2912 31.9519 24.048 32.015 23.8768 32.1321C23.7056 32.2492 23.6155 32.4204 23.6155 32.6277C23.6155 32.8169 23.6966 32.9701 23.8497 33.0872C24.0029 33.2044 24.2011 33.2584 24.4354 33.2584C24.7598 33.2584 25.0301 33.1773 25.2463 33.0061C25.4625 32.844 25.5617 32.6277 25.5617 32.3574L25.5707 32.3664Z" fill="white"/>
<path d="M30.5443 34.0064C29.8595 34.0064 29.3189 33.7902 28.9314 33.3576C28.544 32.9251 28.3548 32.3124 28.3548 31.5285C28.3548 31.2762 28.3548 31.0509 28.3728 30.8617C28.3818 30.6725 28.4089 30.4652 28.4539 30.2399C28.4899 30.0147 28.553 29.8254 28.6251 29.6542C28.7062 29.492 28.8053 29.3299 28.9224 29.1767C29.0396 29.0235 29.2017 28.8973 29.391 28.7892C29.5802 28.6811 29.8054 28.609 30.0577 28.5549L32.3823 28.0684L32.5445 28.8523L30.2199 29.3569C29.8325 29.438 29.5531 29.5822 29.391 29.7894C29.2198 29.9966 29.1297 30.258 29.1026 30.5643C29.2288 30.3481 29.436 30.1588 29.7153 30.0057C29.9946 29.8435 30.337 29.7714 30.7425 29.7714C31.2921 29.7714 31.7696 29.9696 32.1751 30.3751C32.5715 30.7716 32.7788 31.2672 32.7788 31.8438C32.7788 32.4205 32.5715 32.9522 32.1481 33.3757C31.7246 33.7992 31.202 34.0154 30.5623 34.0154L30.5443 34.0064ZM30.5623 33.1594C30.9227 33.1594 31.22 33.0333 31.4453 32.781C31.6705 32.5287 31.7876 32.2223 31.7876 31.8528C31.7876 31.4834 31.6705 31.177 31.4272 30.9247C31.184 30.6724 30.8956 30.5463 30.5443 30.5463C30.1929 30.5463 29.8955 30.6724 29.6703 30.9247C29.445 31.177 29.3279 31.4924 29.3279 31.8619C29.3279 32.2313 29.445 32.5377 29.6793 32.79C29.9135 33.0423 30.2109 33.1684 30.5533 33.1684L30.5623 33.1594Z" fill="white"/>
<path d="M36.59 34.006C35.9413 34.006 35.4097 33.7897 34.9772 33.3572C34.5447 32.9247 34.3285 32.4021 34.3285 31.7803C34.3285 31.1586 34.5447 30.636 34.9772 30.2035C35.4097 29.7709 35.9503 29.5547 36.599 29.5547C37.2478 29.5547 37.7794 29.7709 38.2118 30.2035C38.6443 30.636 38.8606 31.1586 38.8606 31.7803C38.8606 32.4021 38.6443 32.9157 38.2118 33.3482C37.7794 33.7807 37.2297 33.997 36.581 33.997L36.59 34.006ZM36.6081 33.159C36.9955 33.159 37.3108 33.0238 37.5451 32.7625C37.7794 32.5012 37.8965 32.1768 37.8965 31.7893C37.8965 31.4019 37.7704 31.0865 37.5271 30.8162C37.2838 30.5549 36.9685 30.4197 36.59 30.4197C36.2116 30.4197 35.8963 30.5549 35.662 30.8162C35.4277 31.0775 35.3106 31.4019 35.3106 31.7893C35.3106 32.1768 35.4367 32.4922 35.68 32.7535C35.9233 33.0238 36.2386 33.159 36.6081 33.159Z" fill="white"/>
<path d="M41.4195 33.9071V30.483H40.0499V29.645H43.7711V30.483H42.4016V33.9071H41.4195Z" fill="white"/>
<path d="M45.3478 33.9071V29.645H46.3119V31.6814L48.168 29.645H49.3123L47.6634 31.4381L49.4564 33.9071H48.3032L47.0147 32.15L46.3209 32.8799V33.9071H45.3568H45.3478Z" fill="white"/>
<path d="M54.3489 33.9072H53.3849V33.3846C53.0425 33.7901 52.583 33.9973 52.0063 33.9973C51.5828 33.9973 51.2224 33.8802 50.9341 33.6459C50.6458 33.4116 50.4926 33.0872 50.4926 32.6637C50.4926 32.2042 50.6548 31.8618 50.9701 31.6275C51.2855 31.3932 51.7 31.2761 52.2226 31.2761C52.637 31.2761 53.0335 31.3392 53.4029 31.4563V31.3752C53.4029 31.0779 53.3128 30.8526 53.1326 30.6994C52.9524 30.5462 52.6911 30.4651 52.3577 30.4651C51.9703 30.4651 51.5648 30.5552 51.1413 30.7354L50.88 29.9515C51.4026 29.7172 51.9432 29.6001 52.5019 29.6001C53.1236 29.6001 53.5831 29.7533 53.8984 30.0687C54.2138 30.384 54.367 30.8256 54.367 31.4022V33.9252L54.3489 33.9072ZM53.4029 32.3664V32.1231C53.1146 32.006 52.7902 31.9519 52.4298 31.9519C52.1234 31.9519 51.8802 32.015 51.709 32.1321C51.5378 32.2492 51.4477 32.4204 51.4477 32.6277C51.4477 32.8169 51.5288 32.9701 51.6819 33.0872C51.8351 33.2044 52.0333 33.2584 52.2676 33.2584C52.592 33.2584 52.8623 33.1773 53.0785 33.0061C53.2948 32.844 53.3939 32.6277 53.3939 32.3574L53.4029 32.3664Z" fill="white"/>
<path d="M61.512 34.0062C60.8813 34.0062 60.3587 33.79 59.9442 33.3665C59.5298 32.943 59.3135 32.4204 59.3135 31.8076V31.7896C59.3135 31.1769 59.5208 30.6543 59.9442 30.2217C60.3677 29.7892 60.8903 29.564 61.521 29.564C62.2058 29.564 62.7734 29.8073 63.2239 30.3028L62.6202 30.9516C62.2779 30.6002 61.9175 30.42 61.512 30.42C61.1606 30.42 60.8723 30.5551 60.638 30.8165C60.4038 31.0778 60.2866 31.4021 60.2866 31.7716V31.7896C60.2866 32.1771 60.4038 32.5015 60.647 32.7628C60.8903 33.0241 61.1876 33.1592 61.5661 33.1592C61.9625 33.1592 62.3229 32.979 62.6743 32.6276L63.26 33.2043C63.0257 33.4656 62.7734 33.6638 62.5031 33.799C62.2328 33.9341 61.8994 34.0062 61.512 34.0062Z" fill="white"/>
<path d="M68.4858 33.9072H67.5218V33.3846C67.1794 33.7901 66.7199 33.9973 66.1432 33.9973C65.7197 33.9973 65.3593 33.8802 65.071 33.6459C64.7827 33.4116 64.6295 33.0872 64.6295 32.6637C64.6295 32.2042 64.7917 31.8618 65.1071 31.6275C65.4224 31.3932 65.8369 31.2761 66.3595 31.2761C66.7739 31.2761 67.1704 31.3392 67.5398 31.4563V31.3752C67.5398 31.0779 67.4497 30.8526 67.2695 30.6994C67.0893 30.5462 66.828 30.4651 66.4946 30.4651C66.1072 30.4651 65.7017 30.5552 65.2782 30.7354L65.017 29.9515C65.5395 29.7172 66.0801 29.6001 66.6388 29.6001C67.2605 29.6001 67.72 29.7533 68.0353 30.0687C68.3507 30.384 68.5039 30.8256 68.5039 31.4022V33.9252L68.4858 33.9072ZM67.5398 32.3664V32.1231C67.2515 32.006 66.9271 31.9519 66.5667 31.9519C66.2603 31.9519 66.0171 32.015 65.8459 32.1321C65.6747 32.2492 65.5846 32.4204 65.5846 32.6277C65.5846 32.8169 65.6657 32.9701 65.8189 33.0872C65.972 33.2044 66.1702 33.2584 66.4045 33.2584C66.7289 33.2584 66.9992 33.1773 67.2154 33.0061C67.4317 32.844 67.5308 32.6277 67.5308 32.3574L67.5398 32.3664Z" fill="white"/>
<path d="M70.45 33.9072V29.6451H71.4051V32.5015C72.2971 31.231 72.9728 30.2849 73.4233 29.6451H74.3424V33.9072H73.3963V31.0688L71.369 33.9072H70.45ZM73.2431 28.8522C73.0179 29.0504 72.7386 29.1585 72.3962 29.1585C72.0538 29.1585 71.7745 29.0594 71.5492 28.8522C71.324 28.6449 71.1798 28.3746 71.1258 28.0322L71.7204 27.915C71.8376 28.2845 72.0538 28.4647 72.3872 28.4647C72.7206 28.4647 72.9458 28.2845 73.0539 27.915L73.6396 28.0322C73.5855 28.3746 73.4504 28.6539 73.2251 28.8522H73.2431Z" fill="white"/>
<path d="M77.2887 33.9071V30.483H75.9191V29.645H79.6403V30.483H78.2708V33.9071H77.2887Z" fill="white"/>
<path d="M83.0822 34.006C82.4334 34.006 81.9018 33.7897 81.4693 33.3572C81.0369 32.9247 80.8206 32.4021 80.8206 31.7803C80.8206 31.1586 81.0369 30.636 81.4693 30.2035C81.9018 29.7709 82.4424 29.5547 83.0912 29.5547C83.7399 29.5547 84.2715 29.7709 84.704 30.2035C85.1365 30.636 85.3527 31.1586 85.3527 31.7803C85.3527 32.4021 85.1365 32.9157 84.704 33.3482C84.2715 33.7807 83.7219 33.997 83.0731 33.997L83.0822 34.006ZM83.1002 33.159C83.4876 33.159 83.803 33.0238 84.0372 32.7625C84.2715 32.5012 84.3886 32.1768 84.3886 31.7893C84.3886 31.4019 84.2625 31.0865 84.0192 30.8162C83.7759 30.5549 83.4606 30.4197 83.0822 30.4197C82.7037 30.4197 82.3884 30.5549 82.1541 30.8162C81.9199 31.0775 81.8027 31.4019 81.8027 31.7893C81.8027 32.1768 81.9289 32.4922 82.1721 32.7535C82.4154 33.0238 82.7308 33.159 83.1002 33.159Z" fill="white"/>
<path d="M87.1638 33.9071V29.645H89.3532C89.7767 29.645 90.1191 29.7441 90.3714 29.9334C90.6236 30.1226 90.7498 30.3839 90.7498 30.7083C90.7498 31.1498 90.5245 31.4832 90.065 31.6814C90.6507 31.8526 90.948 32.2041 90.948 32.7447C90.948 33.1051 90.8038 33.3845 90.5245 33.5917C90.2452 33.7989 89.8578 33.8981 89.3802 33.8981H87.1728L87.1638 33.9071ZM88.1188 31.4111H89.119C89.3172 31.4111 89.4703 31.3661 89.5875 31.2669C89.7046 31.1678 89.7587 31.0417 89.7587 30.8885C89.7587 30.7443 89.7046 30.6272 89.6055 30.5371C89.5064 30.447 89.3442 30.4019 89.137 30.4019H88.1188V31.4111ZM88.1188 33.1412H89.2271C89.4613 33.1412 89.6415 33.0961 89.7677 32.988C89.8938 32.8889 89.9569 32.7537 89.9569 32.5915C89.9569 32.4293 89.8938 32.3032 89.7587 32.2131C89.6235 32.123 89.4343 32.0779 89.182 32.0779H88.1278V33.1412H88.1188Z" fill="white"/>
<path d="M92.6599 33.9071V32.7988H93.7321V33.9071H92.6599Z" fill="white"/>
<path d="M98.9309 33.9071V29.645H99.895L101.229 31.6184L102.571 29.645H103.535V33.9071H102.553V31.0687L101.211 32.979L99.877 31.0867V33.9071H98.9219H98.9309Z" fill="white"/>
<path d="M109.139 33.9072H108.175V33.3846C107.833 33.7901 107.373 33.9973 106.797 33.9973C106.373 33.9973 106.013 33.8802 105.725 33.6459C105.436 33.4116 105.283 33.0872 105.283 32.6637C105.283 32.2042 105.445 31.8618 105.761 31.6275C106.076 31.3932 106.49 31.2761 107.013 31.2761C107.427 31.2761 107.824 31.3392 108.193 31.4563V31.3752C108.193 31.0779 108.103 30.8526 107.923 30.6994C107.743 30.5462 107.482 30.4651 107.148 30.4651C106.761 30.4651 106.355 30.5552 105.932 30.7354L105.671 29.9515C106.193 29.7172 106.734 29.6001 107.292 29.6001C107.914 29.6001 108.374 29.7533 108.689 30.0687C109.004 30.384 109.157 30.8256 109.157 31.4022V33.9252L109.139 33.9072ZM108.193 32.3664V32.1231C107.905 32.006 107.581 31.9519 107.22 31.9519C106.914 31.9519 106.671 32.015 106.499 32.1321C106.328 32.2492 106.238 32.4204 106.238 32.6277C106.238 32.8169 106.319 32.9701 106.472 33.0872C106.626 33.2044 106.824 33.2584 107.058 33.2584C107.382 33.2584 107.653 33.1773 107.869 33.0061C108.085 32.844 108.184 32.6277 108.184 32.3574L108.193 32.3664Z" fill="white"/>
<path d="M111.104 35.2047V29.6541H112.077V30.3659C112.455 29.8343 112.933 29.564 113.518 29.564C114.059 29.564 114.518 29.7622 114.915 30.1677C115.311 30.5642 115.501 31.1138 115.501 31.7896C115.501 32.4654 115.302 32.997 114.915 33.4025C114.527 33.799 114.059 34.0062 113.518 34.0062C112.933 34.0062 112.455 33.7539 112.077 33.2583V35.2137H111.104V35.2047ZM113.293 33.1592C113.635 33.1592 113.924 33.0331 114.158 32.7808C114.392 32.5285 114.509 32.1951 114.509 31.7806C114.509 31.3661 114.392 31.0507 114.158 30.7984C113.924 30.5461 113.635 30.42 113.293 30.42C112.951 30.42 112.662 30.5461 112.419 30.8074C112.176 31.0687 112.05 31.3931 112.05 31.7986C112.05 32.2041 112.176 32.5195 112.419 32.7808C112.662 33.0331 112.96 33.1682 113.293 33.1682V33.1592Z" fill="white"/>
<path d="M117.312 33.9071V29.645H118.276V31.6814L120.132 29.645H121.276L119.627 31.4381L121.42 33.9071H120.267L118.978 32.15L118.285 32.8799V33.9071H117.321H117.312Z" fill="white"/>
<path d="M124.61 34.0062C123.988 34.0062 123.465 33.799 123.051 33.3845C122.637 32.97 122.429 32.4384 122.429 31.7806C122.429 31.1589 122.628 30.6362 123.015 30.2127C123.411 29.7802 123.907 29.564 124.511 29.564C125.159 29.564 125.655 29.7802 126.015 30.2217C126.376 30.6633 126.556 31.2039 126.556 31.8527C126.556 31.9698 126.556 32.0599 126.538 32.123H123.411C123.465 32.4654 123.601 32.7267 123.826 32.9159C124.051 33.1052 124.321 33.2043 124.637 33.2043C125.06 33.2043 125.439 33.0331 125.79 32.6997L126.358 33.2043C125.916 33.7359 125.34 34.0062 124.619 34.0062H124.61ZM123.393 31.4832H125.583C125.547 31.1589 125.439 30.8885 125.249 30.6723C125.06 30.456 124.808 30.3569 124.502 30.3569C124.195 30.3569 123.961 30.465 123.763 30.6723C123.565 30.8795 123.447 31.1498 123.402 31.4832H123.393Z" fill="white"/>
<path d="M129.088 33.9071V30.483H127.718V29.645H131.439V30.483H130.07V33.9071H129.088Z" fill="white"/>
<path d="M133.025 33.9071V29.645H133.98V32.5014C134.872 31.2309 135.548 30.2848 135.998 29.645H136.918V33.9071H135.971V31.0687L133.944 33.9071H133.025Z" fill="white"/>
<path d="M138.945 33.9071V29.645H139.918V31.3751H141.792V29.645H142.765V33.9071H141.792V32.186H139.918V33.9071H138.945Z" fill="white"/>
<path d="M144.801 33.9071V29.645H147.82V30.483H145.783V33.9071H144.81H144.801Z" fill="white"/>
<path d="M27.661 0.0539551H21.6062V23.6169H38.9687V18.3006H27.661V0.0539551Z" fill="white"/>
<path d="M74.3784 15.3992L68.5218 0.0539551H61.8273L71.4501 23.7521H77.2076L86.8664 0.0539551H80.262L74.3784 15.3992Z" fill="white"/>
<path d="M126.574 0.0539551V13.0113L116.275 0.0539551H111.095V23.6169H117.05V10.5875L127.484 23.6169H132.503V0.0539551H126.574Z" fill="white"/>
<path d="M107.391 0.0539551H89.4883V5.37027H107.391V0.0539551Z" fill="white"/>
<path d="M94.8043 12.2365L89.4883 9.18188V14.4982H107.391V9.18188H94.8043V12.2365Z" fill="white"/>
<path d="M94.8043 21.3554L89.4883 18.3008V23.6171H107.391V18.3008H94.8043V21.3554Z" fill="white"/>
<path d="M0 0.0539551V5.37027V9.18179V14.4981V18.3006V23.6169H5.31596H18.4797V18.3006H5.31596V14.4981H18.4797V9.18179H5.31596V5.37027H18.4797V0.0539551H5.31596H0Z" fill="white"/>
<path d="M42.1042 0.0539551V5.37027V9.18179V14.4981V18.3006V23.6169H47.4202H60.0073V18.3006H47.4202V14.4981H60.0073V9.18179H47.4202V5.37027H60.0073V0.0539551H47.4202H42.1042Z" fill="white"/>
</svg>
