<svg width="367" height="115" viewBox="0 0 367 115" fill="none" xmlns="http://www.w3.org/2000/svg">
<path d="M180.271 13.5943C178.716 14.1353 177.805 15.6571 176.742 16.7956C173.125 20.5794 174.279 22.1011 172.104 25.8811C171.097 27.3052 170.863 29.1463 169.471 30.3036C167.651 32.2012 165.771 34.0536 163.864 35.8384C163.429 36.2855 163.165 36.8792 162.741 37.2963C162.245 37.7359 161.754 37.781 161.568 38.3559C161.44 39.1487 160.6 39.5958 159.976 40.0392C157.876 41.4031 156.053 43.0264 154.04 44.4204C152.792 45.0892 150.904 44.1724 151.699 42.6431C152.451 41.1063 151.786 39.2839 152.455 37.7509C153.56 35.8872 153.287 33.5275 154.487 31.7052C155.572 30.0068 155.947 27.9928 156.995 26.2719C157.77 24.9155 158.406 23.3711 159.015 21.8757C160.694 19.2267 157.778 18.8171 155.833 19.7189C154.861 20.0646 153.787 20.2299 152.728 20.1999C151.044 20.042 149.648 19.3845 148.173 20.6094C147.295 21.2745 147.647 22.661 148.536 23.1945C149.402 23.7281 150.549 23.5703 151.54 23.6154C153.284 23.6229 153.416 24.04 152.803 25.4302C151.381 28.9773 149.671 32.4228 148.131 35.9098C147.692 37.1234 147.56 38.4348 147.144 39.6559C146.883 40.5089 146.274 41.2528 146.126 42.1246C146.16 44.8825 144.776 52.0705 149.247 51.5708C149.856 51.4806 150.401 51.1086 150.866 50.7179C154.543 47.8885 158.186 45.0291 162.17 42.6431C163.864 41.3092 164.595 42.0983 164.504 43.9244C164.375 45.1794 163.777 46.3818 163.426 47.6029C163.187 48.5047 163.146 49.4666 162.764 50.3308C162.389 51.2777 161.667 52.063 161.273 53.0024C160.46 55.4447 159.843 58.0299 158.175 60.0777C157.6 60.6789 157.358 61.3627 157.127 62.1255C156.915 62.5989 156.2 62.6365 155.901 63.0761C154.933 66.6758 151.733 69.2421 149.811 72.3758C149.13 73.5556 147.991 74.3522 147.076 75.3029C146.467 75.9078 145.468 75.889 144.734 76.3437C143.69 77.1741 142.517 78.012 141.08 77.8654C135.277 78.6395 134.49 71.7521 134.21 67.5249C134.021 66.1121 134.615 64.8647 135.22 63.636C135.648 62.0992 134.857 60.0025 136.253 58.7964C136.51 58.5822 136.839 58.3793 137.002 58.09C137.358 57.4512 136.862 55.7115 135.973 55.6965C135.371 55.7341 135.058 56.9477 134.365 56.7674C133.957 56.7148 133.503 56.2451 133.109 56.4856C132.78 56.7148 132.886 57.6691 132.75 58.2328C132.409 59.5028 131.225 60.3557 130.771 61.5919C129.534 65.0262 129.258 69.5389 130.189 73.0747C131.169 75.378 132.239 78.0608 134.244 79.6953C136.037 81.1156 138.194 82.1339 140.516 82.5547C141.262 82.8365 142.014 83.2273 142.763 82.8328C143.857 82.2128 144.844 81.4237 145.975 80.8413C147.617 79.9771 148.975 78.8311 150.469 77.7753C152.145 76.8697 152.989 75.7876 154.063 74.247C156.423 71.9587 158.194 69.2045 159.752 66.3338C162.491 61.2763 165.226 56.2 166.547 50.5751C167.333 48.9669 167.958 47.3813 168.37 45.6416C169.149 42.9061 170.314 40.2909 171.097 37.5593C171.684 35.4513 172.44 33.4223 173.197 31.3595C173.318 31.0176 173.541 30.6531 173.821 30.484C174.808 30.1195 174.672 29.0975 175.058 28.2709C177.793 24.1527 181.951 20.8875 184.137 16.4048C184.913 13.9249 182.333 12.8315 180.275 13.6018L180.271 13.5943Z" fill="#302F35"/>
<path d="M36.675 36.2818C36.308 31.4347 36.6788 26.5688 36.8414 21.7179C37.4656 20.1097 37.5829 18.5954 37.6056 16.882C37.6283 13.3388 39.2285 10.1262 38.9826 6.59415C39.1755 3.39656 34.6322 3.52432 33.9135 6.18459C33.5352 7.34188 33.9248 8.58184 33.5352 9.73162C33.3158 10.3178 32.7483 10.6409 32.4116 11.1294C31.6777 12.452 31.0006 13.8272 30.1721 15.1348C29.0637 16.4988 28.7573 18.1784 28.0234 19.7415C27.1382 21.4098 25.8672 22.8451 24.9744 24.5134C23.325 27.3992 21.1839 30.0294 19.9015 33.103C19.1563 35.2222 17.4199 36.7026 16.3418 38.6076C15.6646 41.7564 12.2978 42.831 9.39253 42.4515C7.89828 42.072 6.55912 42.4252 5.18592 43.0564C2.85186 43.3307 2.32225 45.123 0.775033 46.4795C-0.295535 47.1558 -0.189613 48.1065 0.68046 48.9707C1.21385 49.6808 1.76994 50.282 2.68541 50.2332C4.33098 50.2933 6.0333 50.0077 7.66374 50.3534C8.78727 50.515 9.05585 50.8907 8.9575 51.9203C9.05207 53.3556 11.5753 54.1221 12.9447 54.0169C15.676 53.1339 16.4439 49.7973 17.227 47.3925C17.6696 46.2578 18.5661 45.3785 19.1979 44.3565C20.5143 42.1659 21.1574 39.6823 22.1713 37.3601C22.5987 35.2259 24.3237 33.9634 25.5002 32.2463C26.3287 31.1115 26.7259 29.7588 27.5581 28.6316C28.3752 27.5269 29.3058 26.4523 29.6917 25.1109C29.809 24.7051 30.3083 24.2692 30.2932 25.0244C30.2591 25.4678 30.0738 25.9638 30.0473 26.426C29.6804 30.7583 30.7207 36.1991 28.8784 40.1857C27.8154 41.2453 25.1408 41.6211 25.0955 43.5787C25.2316 45.9121 29.4193 43.357 30.1003 46.2277C30.9439 48.6851 30.1267 53.9192 34.1858 53.2391C35.6385 52.6981 38.4038 52.0405 38.313 50.143C38.6043 47.5128 34.8894 44.1762 38.1314 42.305C38.7783 41.8879 39.898 41.4858 39.9359 40.6442C39.1944 38.3521 36.6674 41.1965 36.6788 36.2855L36.675 36.2818Z" fill="#302F35"/>
<path d="M89.1328 39.5019C88.5578 39.3328 88.0017 39.5808 87.5705 39.9828C85.1532 42.2824 82.142 43.7779 79.2745 45.4988C78.9038 45.7129 78.5066 45.9121 78.0829 45.976C77.4701 46.0887 76.8534 45.8482 76.3919 46.0436C75.9001 46.2352 75.6391 46.7876 75.2117 47.0844C74.6631 47.5278 73.8195 47.3662 73.1159 47.524C71.3266 48.1666 70.5776 47.2873 70.3695 45.5363C70.029 42.5529 70.9332 39.5357 72.7679 37.1685C73.4602 36.3268 74.6102 36.3531 75.6429 36.0864C79.1799 34.8239 83.2466 35.4589 86.341 33.1292C89.6435 29.8715 80.19 31.4985 78.9378 31.8292C77.4965 32.0433 76.0931 33.009 74.6026 33.0278C73.0478 32.5544 74.6404 29.9542 74.5118 28.7668C74.6102 27.3691 75.3214 26.1855 75.8623 24.9342C76.1914 24.1903 76.5811 23.4388 77.228 22.9203C80.765 20.9664 84.9035 19.9218 88.8983 19.4709C90.82 19.114 93.4378 19.7565 94.724 17.9529C95.0039 17.5321 94.8904 17.0398 94.2814 16.9384C91.047 16.5063 87.8466 16.9722 84.6576 17.5133C83.2995 17.6749 81.9074 17.5809 80.5683 17.8665C79.422 18.0694 78.5179 18.896 77.3982 19.1327C75.6051 19.5348 73.7817 19.8805 71.9848 20.3276C70.4527 20.5455 69.5146 22.3228 70.2711 23.653C70.7705 24.4495 72.2685 24.69 72.4388 25.6106C72.5031 26.1629 72.087 26.704 71.8108 27.1699C70.3846 28.951 69.2346 32.6333 67.1048 33.3697C64.4076 34.6999 59.5995 33.738 58.6992 37.2249C58.6349 39.2539 61.177 40.2571 62.9777 39.7912C65.2739 38.9195 65.1718 40.1219 64.767 41.978C64.1088 47.4 56.959 46.0436 53.021 47.3211C51.0652 47.7683 47.2748 49.1848 48.1637 45.634C49.1511 43.3908 50.059 41.1213 50.7475 38.7617C51.7802 36.6537 52.6654 34.5533 53.248 32.2801C54.0916 29.8565 55.1054 27.4555 55.9187 25.0132C56.8758 22.413 54.5607 20.4929 52.6957 23.0367C52.1888 23.7018 52.62 24.5886 52.3855 25.419C51.6516 27.4405 50.7853 29.4131 49.5672 31.1904C46.3404 35.9661 45.6821 41.73 43.0454 46.7237C42.6293 48.005 42.2964 49.3088 41.4604 50.4022C41.1578 50.8757 40.84 51.4243 40.7946 51.9804C40.6584 52.9573 42.0959 54.7797 43.1892 54.3889C45.5914 53.4758 47.5131 51.4731 50.1536 51.2251C52.0677 51.2101 53.7852 50.3309 55.6048 49.8687C57.6475 49.3502 59.7471 48.9594 61.8352 48.6287C66.579 47.6443 64.9524 51.4468 68.5575 52.0142C73.3542 52.2847 75.6316 51.1537 79.388 48.407C83.2125 46.2954 87.2149 44.3527 90.4152 41.328C91.1264 40.5502 89.9499 39.7424 89.1253 39.5019H89.1328Z" fill="#302F35"/>
<path d="M134.849 45.5551C136.73 44.7924 138.485 44.0071 139.941 42.5642C141.114 41.437 143.266 40.5991 143.27 38.7504C142.862 36.5711 140.652 38.3784 139.62 39.0284C137.747 40.167 135.984 41.467 134.089 42.5567C131.676 43.729 129.255 44.9051 126.943 46.2766C126.13 46.7124 125.748 46.6035 125.332 45.8069C124.783 44.9915 123.149 46.1488 122.71 45.4913C122.755 44.8224 123.455 44.458 122.797 43.6163C121.518 41.7338 123.274 39.3666 123.86 37.4841C124.545 35.6956 126.103 35.0944 127.919 34.9065C129.455 34.6736 130.87 34.0273 132.372 33.7041C134.721 33.2833 137.078 32.8174 139.064 31.5023C141.924 29.2102 136.045 29.3793 134.838 30.0369C133.427 30.469 132.012 30.2698 130.62 30.5629C128.551 31.1077 127.208 31.3895 127.405 28.6804C127.862 27.6058 127.832 26.3921 128.116 25.295C130.79 19.114 138.716 19.0012 144.428 17.7913C145.283 17.5509 146.573 17.4156 146.947 16.5401C147.065 16.1568 146.792 15.8224 146.421 15.6872C144.693 15.225 142.782 15.5256 141.016 15.4843C139.892 15.5218 138.772 15.8074 137.668 16.0103C135.973 16.356 134.218 15.984 132.587 16.5814C131.842 16.8783 131.074 17.1075 130.272 17.2014C128.392 17.4006 126.508 17.5396 124.946 18.7194C124.185 19.1064 123.217 19.3281 122.835 20.0608C122.464 20.7672 122.415 21.7855 122.914 22.4318C123.338 22.9916 124.352 23.2096 124.48 23.8446C124.091 26.4635 122.502 29.0487 121.023 31.2505C119.551 33.8319 112.402 32.4679 111.993 35.6204C111.611 37.4466 113.9 38.198 115.386 38.2431C116.188 38.1717 117.111 38.059 117.648 38.7992C118.443 39.8137 118.235 41.2979 118.261 42.4289C118.273 44.7172 118.11 47.3813 120.255 48.7978C122.449 50.4586 125.029 51.3153 127.374 49.3502C128.49 48.873 129.648 48.5911 130.745 48.0163C132.186 47.3888 133.484 46.3592 134.853 45.5589L134.849 45.5551Z" fill="#302F35"/>
<path d="M110.189 39.7837C108.88 38.1454 106.19 35.3762 107.245 33.0992C108.853 30.6869 110.249 27.9402 112.572 26.1141C113.62 25.2649 114.233 23.9536 115.356 23.2209C115.931 22.8451 116.461 22.4017 116.82 21.8118C117.44 20.8236 118.205 19.9707 119.09 19.2229C120.52 18.0619 123.172 16.5627 121.367 14.5524C120.13 13.0006 118.031 14.0414 116.949 15.2438C114.811 17.3592 113.968 20.4441 111.857 22.5483C111.301 23.0255 110.548 23.2847 110.102 23.8822C109.553 24.6675 109.054 25.7609 108.324 26.3621C106.462 27.2263 105.876 29.7551 104.026 30.4878C103.357 30.7583 102.865 30.1346 102.343 29.8264C102.021 29.6348 101.643 29.5409 101.302 29.3868C99.1311 28.331 96.5587 21.0115 93.8198 24.5021C92.7152 25.7684 92.6471 26.8092 94.0014 27.5945C95.8324 28.8946 100.591 33.614 99.5585 35.9774C98.749 37.3 97.2207 38.1116 96.4225 39.4192C95.3898 40.9184 95.0493 42.7709 94.0847 44.3114C93.5664 45.1418 92.8514 45.8482 92.2689 46.6373C90.9562 48.4108 89.3976 50.0077 88.4292 51.9766C87.8353 53.1264 87.3473 54.3325 86.6739 55.441C86.3032 56.0985 85.7471 56.6434 85.6071 57.3347C85.3121 58.7663 86.7231 59.1421 87.7142 58.3868C88.2325 57.9885 88.3838 57.1356 88.7205 56.4856C89.4165 55.223 90.4417 54.1559 91.255 52.9648C93.5097 49.8724 95.0455 45.991 98.1853 43.5637C100.444 42.0043 103.856 38.6151 106.148 41.8879C107.889 43.9094 110.366 45.1155 112.311 46.8928C112.651 47.1821 112.999 47.5128 113.412 47.6743C114.785 48.129 114.966 46.889 114.255 45.9797C112.89 43.9169 111.547 41.8428 110.185 39.7874L110.189 39.7837Z" fill="#302F35"/>
<path d="M243.378 12.1251C243.692 11.0091 243.627 9.73912 244.142 8.65322C244.74 6.83837 246.627 5.63223 247.093 3.77229C247.308 2.14907 245.818 -0.169272 243.919 0.0223578C242.148 -0.225634 242.065 1.64558 241.588 2.85172C240.62 5.85016 238.259 7.8867 236.168 10.0435C235.176 11.073 234.601 12.5722 233.33 13.3688C232.415 13.7634 232.468 14.7328 231.976 15.4016C231.276 16.0178 230.172 16.5664 229.846 17.4569C229.627 18.772 228.632 19.5122 227.588 20.2224C226.472 20.9852 225.674 22.0485 224.841 23.0443C223.411 24.5998 223.85 27.3014 221.565 28.1844C220.941 28.6391 220.922 29.4958 220.586 30.1383C220.09 31.3219 215.906 37.5179 214.824 34.7186C214.397 33.8582 214.764 32.8099 214.684 31.8517C214.597 31.104 213.981 30.5216 213.879 29.7513C213.773 25.3513 213.773 20.8912 213.742 16.4913C213.773 15.4166 214.68 14.2781 214.174 13.226C212.649 11.2872 209.029 9.98336 207.864 13.1772C206.869 15.7586 207.47 18.4977 206.99 21.1655C206.513 23.529 205.741 25.7609 204.864 27.9778C203.933 31.63 203.056 35.2973 202.061 38.9307C201.486 41.3731 201.145 43.8643 200.286 46.2277C199.617 47.8547 199.515 49.2637 200.805 50.6577C201.308 51.4618 201.86 51.5858 202.692 50.9922C204.399 50.1054 205.011 49.2374 205.042 47.3737C205.098 46.8402 205.235 46.3066 205.261 45.7731C205.306 45.0028 204.834 44.2212 204.905 43.4171C205.549 40.9222 206.468 38.4385 207.368 36.0075C208.178 34.3016 209.063 35.4288 209.49 36.6237C210.682 38.5287 211.094 40.9335 212.21 42.8272C213.073 43.9958 215.153 44.5181 216.235 43.4735C220.328 39.3704 222.731 33.8544 226.442 29.4958C226.79 29.1163 227.516 29.244 227.724 28.7631C227.758 27.1136 229.389 28.0341 230.293 27.4968C230.788 27.1587 231.496 26.5274 231.692 27.4818C231.855 28.068 231.571 28.9773 232.343 29.1614C233.482 29.3568 233.432 30.3262 233.255 31.2768C231.719 37.0971 233.1 43.2931 231.435 49.0608C230.834 50.6765 230.463 52.7168 231.117 54.3363C232.082 55.5011 234.454 54.9525 234.953 53.5247C235.895 48.531 236.22 43.3608 237.613 38.446C238.244 35.6993 237.847 32.8587 238.687 30.1571C238.978 27.4668 240.071 24.9756 240.877 22.4168C241.18 19.6888 241.554 16.9835 242.493 14.3833C242.754 13.6243 243.143 12.8954 243.382 12.1289L243.378 12.1251Z" fill="#302F35"/>
<path d="M366.436 11.1745C364.651 8.9989 362.771 10.2013 362.082 12.5309C361.129 15.5556 362.222 18.8584 361.235 21.8644C360.384 23.8559 360.232 26.0239 359.585 28.0492C359.162 28.7819 358.984 29.586 358.836 30.4088C358.674 31.1115 358.148 31.6601 358.019 32.3289C357.823 33.1781 358.246 34.1964 357.97 35.023C357.002 37.4165 354.891 36.7176 353.832 34.7863C352.462 32.5656 351.721 30.0143 350.147 27.9252C349.379 27.061 349.175 25.9412 348.789 24.8967C348.373 23.7995 347.737 22.8939 347.302 21.7893C346.807 20.6808 346.444 19.4145 345.592 18.5203C344.37 17.2916 341.779 18.4714 341.439 19.9707C341.174 21.019 342.105 22.1312 342.108 23.0442C341.416 26.0427 341.068 29.1614 340.47 32.1936C340.334 33.0541 339.895 33.8244 339.763 34.6773C339.612 36.0864 339.774 37.5593 339.6 38.9533C339.434 40.2646 338.401 43.2744 339.536 44.2175C341.026 45.1418 342.759 43.6726 342.725 42.072C342.664 39.2727 342.846 36.4997 344.106 33.9446C345.835 29.3755 348.744 34.1062 349.992 36.3193C351.709 39.4831 353.726 42.4966 355.47 45.6491C356.275 47.9449 357.543 49.9889 359.033 51.8827C359.423 52.5252 360.183 52.8145 360.838 52.3824C362.135 51.6459 363.035 49.9138 362.808 48.3882C362.574 47.2948 362.086 46.2052 362.086 45.0892C361.972 44.0371 362.109 42.9287 361.999 41.8616C361.757 40.7719 361.152 39.7311 361.761 38.6301C362.389 36.5485 361.844 34.3579 362.037 32.2012C362.158 31.0965 362.767 30.0218 362.922 28.8796C363.202 27.354 363.209 25.8097 363.429 24.2804C363.822 21.4586 364.753 18.8171 365.536 16.1418C366.119 14.4359 367.896 13.0494 366.44 11.1895L366.436 11.1745Z" fill="#302F35"/>
<path d="M330.551 47.7006C327.642 47.5128 324.722 48.0088 321.813 47.261C321.011 47.0544 320.22 46.7989 319.399 46.6673C317.901 46.3931 316.32 46.4306 314.818 46.1263C313.313 45.7768 311.905 45.0479 310.37 44.8563C309.708 44.7548 309.072 44.9765 308.421 45.0629C307.313 45.2358 306.329 43.7967 307.343 42.9963C308.24 41.9968 309.681 41.7338 310.566 40.693C311.1 40.073 311.319 39.2314 311.83 38.6414C312.299 38.1417 312.654 37.5818 312.897 36.9393C313.195 36.2292 313.839 35.6843 314.198 34.9554C315.113 33.0579 315.522 30.995 316.551 29.2628C317.22 28.1243 318.196 27.1962 318.976 26.1329C320.311 24.4458 321.075 22.3116 322.698 20.8048C324.234 19.6475 325.112 17.9191 326.273 16.4537C327.468 15.1574 329.296 14.5224 330.918 13.9926C331.966 13.8498 332.893 13.4665 333.665 12.6962C336.729 10.2689 332.764 8.0558 330.162 8.72087C329.016 8.94631 328.059 9.91949 327.162 10.5545C325.509 11.8734 323.489 12.3468 321.465 12.7601C319.04 13.3651 316.536 13.7333 314.035 13.5154C313.154 13.4139 312.337 12.8916 311.436 13.0119C310.059 13.3275 308.705 13.7634 307.279 13.8122C306.719 13.8761 306.235 14.1504 305.951 14.6614C305.758 15.0071 305.459 15.6346 305.036 15.2137C303.984 13.8009 303.889 14.5712 302.399 14.9582C300.458 15.3189 298.537 14.466 296.607 14.2744C295.208 14.1541 293.755 14.4961 292.389 14.0264C291.928 13.8761 291.459 13.6694 290.971 13.6769C290.312 13.6769 289.658 14.0715 288.977 14.1692C287.627 14.3833 286.261 14.1579 284.903 14.3345C281.052 14.9169 277.224 15.9427 273.584 17.2089C269.688 18.633 273.524 22.8 276.123 20.4591C278.245 18.9449 280.904 19.0839 283.318 18.4001C285.338 17.7312 287.517 18.1596 289.605 17.8101C291.198 17.4194 292.775 17.6974 294.36 18.0506C296.108 18.3211 295.298 19.6738 294.273 20.2938C293.399 20.9213 292.711 21.8531 291.818 22.4581C291.031 22.9917 289.976 23.1532 289.174 23.7206C287.002 25.2161 284.494 26.054 282.066 27.0196C281.389 27.3202 280.821 27.3165 281.094 26.3997C281.192 25.3513 282.054 24.3293 281.767 23.3298C281.389 22.2702 280.186 22.2702 279.179 22.3454C276.403 21.9058 276.221 29.8377 275.552 31.8141C274.958 34.2715 274.594 36.7815 273.789 39.1825C273.078 41.4633 272.419 43.8192 272.658 46.2315C272.79 48.2455 275.446 49.3051 276.388 47.2347C277.685 44.7285 277.492 41.8916 278.23 39.2464C278.536 37.5593 278.971 35.5603 281.177 36.4283C282.894 37.4315 284.139 39.0961 285.565 40.4488C286.624 41.174 286.197 43.1616 287.661 43.2932C289.488 43.3119 288.542 44.6534 288.78 45.6829C288.97 46.1601 289.628 46.1338 290.044 46.3367C290.835 46.6636 291.27 47.4714 291.856 48.0538C292.669 48.9631 293.74 49.7973 293.861 51.0335C293.963 54.0958 294.606 53.7238 297.239 54.5091C298.374 55.1329 299.286 56.1361 300.318 56.9177C301.941 58.4432 304.181 58.8114 306.102 59.8147C306.954 60.3106 307.911 60.5098 308.86 60.7089C311.051 61.6032 310.967 61.8775 313.438 61.359C316.157 61.3778 319.07 60.878 321.302 59.2623C321.518 59.0707 321.665 58.8941 321.665 58.6386C320.769 56.5382 317.572 57.9885 315.874 58.1764C313.77 58.5183 311.656 58.0599 309.59 57.6804C306.806 57.4249 304.321 54.9074 303.749 52.1607C303.171 49.6207 306.473 49.5268 308.225 49.6808C308.909 49.8123 309.575 50.0641 310.279 50.034C314.504 48.9631 315.946 49.1961 320.179 49.9701C323.402 50.0641 326.674 50.1467 329.901 49.9138C331.917 49.7071 333.756 48.0351 330.544 47.6856L330.551 47.7006ZM304.15 40.1482C302.32 41.7751 300.481 43.3909 298.627 45.0141C296.395 47.0093 294.326 45.8595 293.153 43.4622C292.609 42.568 292.003 41.6023 291.935 40.5427C291.935 39.5733 291.338 38.8969 290.725 38.2093C289.934 37.2888 289.794 36 288.871 35.2071C287.944 34.6623 287.358 33.7643 286.579 33.0691C286.151 32.731 285.66 32.4567 285.232 32.1223C283.87 30.9612 285.414 31.0702 286.303 30.6794C287.184 30.2323 287.294 28.9134 288.126 28.2897C288.803 27.726 289.768 27.6622 290.623 27.309C294.504 25.2762 298.287 22.9879 302.013 20.6733C303.174 19.8655 304.491 19.0914 304.884 17.6598C305.399 16.5777 306.212 17.2352 306.95 17.6561C307.593 17.9454 308.402 17.7575 309.136 17.8515C310.559 18.1671 311.573 16.8933 312.95 16.8745C314.902 16.7167 316.85 16.4387 318.798 16.2057C319.956 16.0855 321.756 16.0742 320.682 17.7275C317.398 23.5628 313.68 29.5108 308.565 33.9146C306.988 35.9098 306.012 38.3934 304.154 40.1557L304.15 40.1482Z" fill="#302F35"/>
<path d="M269.964 10.8739C267.017 10.8325 266.552 12.7376 266.219 15.1686C264.857 17.0436 264.35 19.377 263.352 21.4661C262.111 23.6492 260.749 25.7684 259.493 27.9552C257.322 32.6483 252.907 35.7782 249.737 39.7799C249.2 40.4901 249.294 41.6286 248.515 42.0269C247.569 42.5191 246.597 41.839 246.548 43.094C246.514 43.2255 246.415 43.3683 246.275 43.3307C245.481 42.8685 246.056 41.2679 246.132 40.4976C246.321 37.8937 246.707 35.2447 247.486 32.776C247.853 31.9269 248.258 31.0739 248.504 30.1796C249.082 28.2183 249.268 26.1629 250.043 24.2391C250.55 22.676 251.708 21.3684 252.211 19.8204C252.623 18.2272 251.984 15.7548 249.956 15.9164C248.322 16.2771 248.106 19.7001 247.448 21.0528C246.484 23.4914 245.073 25.8511 244.864 28.5452C244.77 32.4003 243.624 36.139 242.848 39.9077C242.379 42.6318 240.662 45.5025 241.895 48.2267C242.307 49.5455 243.219 51.2251 244.796 50.7517C247.214 49.6695 249.098 47.5428 250.758 45.5251C252.483 43.7741 254.322 42.087 255.347 39.8025C255.638 38.9646 256.115 38.2882 256.803 37.7321C257.473 36.9393 257.594 35.6355 258.468 34.9178C261.876 32.0509 262.595 31.9306 261.721 36.6086C261.252 39.314 260.681 42.0457 260.518 44.7698C260.393 45.5176 259.921 46.1864 259.909 46.9567C259.807 48.4897 261.176 49.6583 262.671 49.1472C264.638 48.1553 264.002 43.1917 264.929 41.3092C265.542 39.19 264.827 36.9318 265.871 34.8915C266.045 33.6215 265.947 32.3139 266.298 31.0551C267.244 27.4593 267.483 23.5928 269.227 20.2825C270.653 17.9679 270.815 15.1536 271.443 12.561C271.678 11.4412 271.315 10.8325 269.957 10.8776L269.964 10.8739Z" fill="#302F35"/>
<path d="M334.399 26.208C333.275 25.0808 331.978 25.6482 331.096 26.7604C329.621 28.1356 330.094 28.1844 330.298 29.9317C329.931 32.1335 328.739 34.1362 328.251 36.3682C327.809 38.307 327.306 40.1143 326.598 42.0382C325.6 44.7961 329.254 46.6861 330.464 43.6952C330.862 42.459 330.812 41.1514 331.058 39.8889C331.823 35.9736 334.085 32.4153 335.413 28.6616C335.73 27.7185 335.061 26.8393 334.399 26.2118V26.208Z" fill="#302F35"/>
<path d="M333.211 18.0243C331.955 18.0017 330.162 19.4784 330.612 20.7597C331.255 21.7291 332.579 22.6572 333.767 22.4769C336.687 22.1612 335.795 17.9228 333.211 18.0243Z" fill="#302F35"/>
<path d="M190.96 70.66L191.55 68.5L193.54 68.11L194.44 66.67L194.72 65.9L194.65 64.99L193.75 64L191.2 65.31L186.32 68.18L180 71.59L173.09 74.08L167.76 76.88L164.53 78.18L163.37 77.84L162.35 78.18L161.45 78.62L161.21 79.86L161.97 81.7L163.95 81.82L166.24 81.12L169.82 79.79L173.95 77.83L178.25 75.96L181.96 74.13L184.4 72.63L185.23 71.75L186.49 71.62L186.83 71.53L186.95 72L186.61 72.68L186.02 73.22L184.02 79.48L179.8 85.7L176.04 92.71L170.98 98.77L166.3 104.54L160.84 108.21L158.45 109.86L155.54 110.23L152.03 108.45L150.05 105.19L151.72 101.75L154.75 98.4L158.39 95.44L162.01 93.87L164.84 91.94L168.23 91.35L169.32 91.12L169.33 89.72L169.8 88.68L168.89 88.78L168.22 88.59L167.42 88.45L162.87 89.62L157.8 92.12L152.81 95.02L149.21 98.21L147.27 101.73L146 105.58L147.03 108.96L148.89 112.01L152.32 113.26L155.67 114.32L161.32 112.59L166.83 109.29L171.64 104.77L176 100.58L184.43 86.12L190.96 70.66Z" fill="#302F35"/>
<path d="M221.87 92.66L220.25 94.46L218.36 97.62L216.4 101.22L214.48 103.96L213.91 103.85L213.25 103.82L212.78 102.9L212.85 101.79L213.14 101.02L212.99 98.86L213.16 96.68L213.48 95.63L213.77 94.74L213.43 93.85L212.58 93.29L211.04 94.3L209.48 96.83L207.72 99.42L206.1 100.93L202.87 104.63L201.07 105.17L200.9 102.74L202.32 98.59L204.75 93.75L207.47 88.81L207.18 88.03L208.07 87.77L207.63 87.18L207.13 86.39L206.46 85.71L205.03 86.59L203.24 88.31L202.2 91.17L200.42 93.8L199.5 96.45L199.16 98.38L198.99 99.23L197.62 99.74L194.37 101.13L191.34 103.92L188.04 105.18L185.92 104.64L185.84 101.97L188.82 101.7L190.75 100.21L193.03 97.99L195.57 96.27L196.31 93.95L194.81 92.05L192.56 91.67L188.73 93.5L185.43 96.65L182.8 100.47L182.76 104.6L183.89 107.14L186.58 107.59L189.92 107.09L193.8 105.66L197.05 102.99L197.3 102.64L197.42 105.87L197.71 108.75L200 110.29L202.66 108.64L205.56 105.98L207.82 103.14L209.2 101.96L209.82 102.76L209.2 103.76L211.12 106.59L213.75 107.69L215.89 107.15L218.28 106.05L220.02 103.8L221.16 101.15L221.65 100L222.81 97.93L223.05 95.6L223.68 94.7L223.2 93.42L221.83 92.7L221.87 92.66ZM189.67 96.77L191.81 95.14L189.98 96.97L187.98 97.92L189.67 96.77Z" fill="#302F35"/>
<path d="M284.89 99.02L284.41 98.2L283.11 98.65L281.84 99.78L281.04 98.54L281.13 96.8L280.88 94.64L281.23 93.11L281.17 91.67L279.79 90.79L278.53 92.18L276.4 93.49L274.36 95.12L273.07 96.28L273.88 95.28L274.39 92.62L275.65 90.29L276 88.95L275.73 87.28L274.08 87.03L272.66 87.7L270.47 91.02L268.32 96.55L267.93 98.85L266.77 99.68L263.94 101.72L260.56 103.96L257.06 104.43L255.2 104.51L255.32 102.26L257.9 101.46L259.94 100.18L262.45 98.22L264.16 95.78L265.5 93.91L263.74 92.51L261.75 91.56L257.87 93.37L254.5 96.5L252.05 99.35L250.67 102.04L247.88 103.65L246.11 105.32L244.79 104.35L244.82 102.03L245.95 97.29L248.52 90.84L252.81 85.68L255.31 80.81L257.7 78.7L258.21 77.92L258.44 76.91L257.94 75.73L256.82 74.95L255.92 75.6L255.03 76.55L251.05 80.84L246.48 85.86L243.18 92.08L241.17 98.46L241.01 98.67L240.49 99.99L237.26 101.42L234.06 103.95L230.57 104.49L228.77 104.38V102.19L231.47 101.6L233.6 100.42L236.18 98.47L238.13 96.12L238.84 93.93L237.07 92.8L235.24 92.23L231.48 93.55L227.75 96.31L225.81 100.52L225.06 104.66L226.87 106.81L229.27 107.9L232.6 107L236.12 104.99L239.56 102.68L240.87 102.08L240.92 103.41L241.83 107.01L245.01 108.36L249.75 105.92L251.85 103.82L251.61 104.64L253.62 106.59L255.79 107.53L259.22 107.23L262.86 105.35L266.39 103.11L267.14 102.54L265.9 106.14L266.69 107.22L266.73 108.31L266.96 109.52L268.32 109.75L269.29 109.4L269.92 108.66L271.86 105.08L273.97 100.82L276.54 97.62L278.44 95.95L278.94 100.23L281.47 101.83L283.34 101.65L285 100.55L285.24 100.1L285.73 99.59L284.9 99.01L284.89 99.02ZM258.48 96.32L260.6 95.46L259.01 96.79L256.66 98.55L258.48 96.33V96.32ZM231.96 96.32L234.08 95.46L232.49 96.79L230.14 98.55L231.96 96.33V96.32Z" fill="#302F35"/>
</svg>
