<svg display="none" xmlns="http://www.w3.org/2000/svg">

	<symbol id="search" viewBox="0 0 33 33">
		<path
			d="M32.0921 32.0921C31.8044 32.3799 31.4628 32.6082 31.0869 32.764C30.7109 32.9198 30.308 33 29.901 33C29.4941 33 29.0911 32.9198 28.7151 32.764C28.3392 32.6082 27.9976 32.3799 27.71 32.0921L22.2411 26.6232C19.9912 28.0632 17.3321 28.9248 14.4624 28.9248C6.47502 28.9248 0 22.4498 0 14.4624C0 6.47502 6.47502 0 14.4624 0C22.4498 0 28.9248 6.47502 28.9248 14.4624C28.9248 17.3321 28.0632 19.9912 26.6232 22.2411L32.0921 27.71C32.3799 27.9976 32.6082 28.3392 32.764 28.7151C32.9198 29.0911 33 29.4941 33 29.901C33 30.308 32.9198 30.7109 32.764 31.0869C32.6082 31.4628 32.3799 31.8044 32.0921 32.0921ZM14.4624 4.13211C8.75801 4.13211 4.13211 8.75595 4.13211 14.4624C4.13211 20.1688 8.75801 24.7927 14.4624 24.7927C20.1688 24.7927 24.7927 20.1688 24.7927 14.4624C24.7927 8.75595 20.1688 4.13211 14.4624 4.13211Z" />
	</symbol>

	<symbol id="arrow-bottom" viewBox="0 0 84 42">
		<path d="M1 1L42 41L83 1"/>
	</symbol>

</svg>